<?xml version="1.0" standalone="no"?>
        <!DOCTYPE svg PUBLIC "-//W3C//DTD SVG 1.1//EN" 
        "http://www.w3.org/Graphics/SVG/1.1/DTD/svg11.dtd">  <svg xmlns="http://www.w3.org/2000/svg" xmlns:xlink="http://www.w3.org/1999/xlink" width="40" zoomAndPan="magnify" viewBox="0 0 30 30.000001" height="40" preserveAspectRatio="xMidYMid meet" version="1.0"><defs><clipPath id="id1"><path d="M 2.367188 5.398438 L 27.773438 5.398438 L 27.773438 23.542969 L 2.367188 23.542969 Z M 2.367188 5.398438 " clip-rule="nonzero"/></clipPath><clipPath id="id2"><path d="M 2.367188 12 L 27.773438 12 L 27.773438 17 L 2.367188 17 Z M 2.367188 12 " clip-rule="nonzero"/></clipPath></defs><g clip-path="url(#id1)"><path fill="rgb(61.959839%, 18.818665%, 22.349548%)" d="M 24.941406 5.398438 L 5.199219 5.398438 C 3.640625 5.398438 2.378906 6.648438 2.378906 8.191406 L 2.378906 12.378906 L 27.761719 12.378906 L 27.761719 8.191406 C 27.761719 6.648438 26.496094 5.398438 24.941406 5.398438 Z M 24.941406 23.542969 L 5.199219 23.542969 C 3.640625 23.542969 2.378906 22.292969 2.378906 20.753906 L 2.378906 16.566406 L 27.761719 16.566406 L 27.761719 20.753906 C 27.761719 22.292969 26.496094 23.542969 24.941406 23.542969 Z M 24.941406 23.542969 " fill-opacity="1" fill-rule="nonzero"/></g><g clip-path="url(#id2)"><path fill="rgb(93.328857%, 93.328857%, 93.328857%)" d="M 2.378906 12.378906 L 27.761719 12.378906 L 27.761719 16.566406 L 2.378906 16.566406 Z M 2.378906 12.378906 " fill-opacity="1" fill-rule="nonzero"/></g></svg>  